<svg height="409pt" viewBox="-47 0 409 409.59323" width="409pt" xmlns="http://www.w3.org/2000/svg"><path d="m307.5 232.109375c0-109.339844-81.921875-225.28125-150.1875-225.28125-68.269531 0-150.1875 115.941406-150.1875 225.28125 0 109.332031 67.238281 170.667969 150.1875 170.667969 82.945312 0 150.1875-61.335938 150.1875-170.667969" fill="#fff"/><path d="m307.5 232.109375h6.828125c-.042969-56.382813-20.976563-113.757813-50.679687-157.484375-14.878907-21.859375-31.972657-40.324219-50.054688-53.5-18.070312-13.132812-37.246094-21.0976562-56.28125-21.125-19.039062.0273438-38.222656 7.992188-56.285156 21.125-27.101563 19.765625-52.070313 51.40625-70.503906 88.621094-18.402344 37.226562-30.210938 80.070312-30.226563 122.363281-.027344 56.039063 17.296875 100.574219 45.835937 131 28.5 30.453125 68.035157 46.519531 111.179688 46.484375 43.144531.035156 82.667969-16.035156 111.175781-46.484375 28.53125-30.425781 45.855469-74.960937 45.839844-131h-13.65625c-.023437 53.289063-16.328125 94.089844-42.140625 121.664063-25.855469 27.550781-61.417969 42.140624-101.21875 42.175781-39.804688-.035157-75.371094-14.625-101.21875-42.175781-25.824219-27.574219-42.117188-68.375-42.144531-121.664063-.042969-52.964844 19.992187-108.230469 48.3125-149.808594 14.132812-20.789062 30.316406-38.144531 46.796875-50.128906 16.496094-12.019531 33.152344-18.539063 48.253906-18.519531 15.089844-.023438 31.753906 6.5 48.242188 18.519531 24.738281 17.96875 48.734374 48.058594 66.300781 83.628906 17.605469 35.570313 28.828125 76.582031 28.816406 116.308594z" fill="#54596e"/><path d="m14.121094 241.410156c1.808594 48.753906 17.671875 86.421875 41.96875 112.363282 25.847656 27.550781 61.417968 42.140624 101.21875 42.175781 39.804687-.035157 75.363281-14.625 101.21875-42.175781 24.292968-25.941407 40.160156-63.609376 41.96875-112.363282-19.207032 73.339844-76.03125 113.578125-143.1875 113.578125s-123.976563-40.238281-143.1875-113.578125" fill="#eeeef0"/><g fill="#54596e"><path d="m8.359375 208.863281c-.78125 7.753907-1.234375 15.515625-1.234375 23.246094 0 109.332031 67.238281 170.667969 150.1875 170.667969 82.945312 0 150.1875-61.335938 150.1875-170.667969h-4.804688c-.664062 3.160156-1.398437 6.257813-2.195312 9.300781-1.808594 48.753906-17.675781 86.421875-41.96875 112.363282-25.855469 27.550781-61.414062 42.140624-101.21875 42.175781-39.800781-.035157-75.371094-14.625-101.21875-42.175781-24.300781-25.941407-40.164062-63.609376-41.972656-112.363282-2.671875-10.214844-4.617188-21.066406-5.761719-32.546875m297.902344 0c-.800781 8.0625-2 15.8125-3.566407 23.246094h4.804688c0-7.730469-.453125-15.492187-1.238281-23.246094"/><path d="m117.195312 237.171875c8.980469 9.75 23.648438 15.355469 40.113282 15.410156 16.304687-.050781 30.839844-5.550781 39.847656-15.125 2.5625-2.761719 2.402344-7.082031-.359375-9.644531-2.761719-2.566406-7.082031-2.40625-9.644531.359375-5.433594 5.96875-16.707032 10.816406-29.839844 10.761719-13.269531.058594-24.632812-4.894532-30.011719-10.945313-2.535156-2.792969-6.855469-2.996093-9.644531-.460937-2.792969 2.535156-2.996094 6.855468-.460938 9.644531zm0 0"/><path d="m109.523438 191.148438c0 7.539062-6.113282 13.652343-13.652344 13.652343-7.542969 0-13.65625-6.113281-13.65625-13.652343 0-7.542969 6.113281-13.65625 13.65625-13.65625 7.539062 0 13.652344 6.113281 13.652344 13.65625zm0 0"/><path d="m232.402344 191.148438c0 7.539062-6.113282 13.652343-13.652344 13.652343s-13.652344-6.113281-13.652344-13.652343c0-7.542969 6.113282-13.65625 13.652344-13.65625s13.652344 6.113281 13.652344 13.65625zm0 0"/></g><path d="m252.882812 232.105469c0 7.542969-6.113281 13.65625-13.652343 13.65625-7.542969 0-13.652344-6.113281-13.652344-13.65625 0-7.539063 6.109375-13.652344 13.652344-13.652344 7.539062 0 13.652343 6.113281 13.652343 13.652344zm0 0" fill="#ffd578"/><path d="m89.042969 232.105469c0 7.542969-6.113281 13.65625-13.652344 13.65625-7.542969 0-13.652344-6.113281-13.652344-13.65625 0-7.539063 6.109375-13.652344 13.652344-13.652344 7.539063 0 13.652344 6.113281 13.652344 13.652344zm0 0" fill="#ffd578"/></svg>