<svg id="Capa_1" enable-background="new 0 0 511.999 511.999" height="512" viewBox="0 0 511.999 511.999" width="512" xmlns="http://www.w3.org/2000/svg"><g><path d="m406.007 170.565-149.118-162.675c-.478-.522-1.3-.522-1.779 0l-149.118 162.675c-.709.774-.16 2.022.889 2.022h78.884c.666 0 1.206.54 1.206 1.206v80.999c0 .666.54 1.206 1.206 1.206h135.643c.666 0 1.206-.54 1.206-1.206v-80.999c0-.666.54-1.206 1.206-1.206h78.884c1.052 0 1.601-1.248.891-2.022z" fill="#b7e445"/><path d="m406.007 170.565-149.118-162.675c-.478-.522-1.301-.522-1.779 0l-9.944 10.848 100.437 109.567c8.519 9.294 1.926 24.281-10.681 24.281h-35.404c-8.003 0-14.49 6.487-14.49 14.49v54.432c0 8.003-6.487 14.49-14.49 14.49h-83.566v18.794c0 .666.54 1.206 1.206 1.206h135.643c.666 0 1.206-.54 1.206-1.206v-80.999c0-.666.54-1.206 1.206-1.206h78.884c1.051 0 1.6-1.248.89-2.022z" fill="#aad540"/><g fill="#617881"><path d="m137.648 283.61h-53.214c-.555 0-1.004.45-1.004 1.004v218.88c0 .555.45 1.004 1.004 1.004h136.047c.555 0 1.004-.45 1.004-1.004v-53.214c0-.555-.45-1.004-1.004-1.004h-80.825c-.555 0-1.004-.45-1.004-1.004v-163.658c0-.554-.449-1.004-1.004-1.004z"/><path d="m359.316 284.262-54.037 144.1c-.326.869-1.555.869-1.881 0l-54.037-144.1c-.147-.392-.522-.652-.94-.652h-53.077c-.701 0-1.187.7-.94 1.357l82.08 218.88c.147.392.522.652.94.652h53.83c.419 0 .793-.26.94-.652l82.08-218.88c.246-.657-.239-1.357-.94-1.357h-53.077c-.419 0-.794.26-.941.652z"/><circle cx="400.958" cy="476.888" r="27.611"/></g><path d="m106.881 180.087h72.591v74.705c0 4.801 3.906 8.707 8.707 8.707h135.643c4.801 0 8.707-3.906 8.707-8.707v-74.705h72.591c3.452 0 6.581-2.042 7.97-5.202s.779-6.846-1.552-9.388l-149.121-162.675c-1.645-1.794-3.983-2.822-6.417-2.822s-4.773 1.028-6.418 2.822l-60.31 65.792c-2.799 3.054-2.592 7.798.461 10.597 3.053 2.8 7.797 2.594 10.597-.46l55.67-60.731 134.812 147.067h-64.577c-4.801 0-8.707 3.905-8.707 8.706v74.706h-123.056v-74.706c0-4.801-3.906-8.706-8.707-8.706h-64.577l55.75-60.817c2.799-3.054 2.592-7.798-.461-10.597-3.054-2.8-7.798-2.593-10.597.46l-65.415 71.363c-2.333 2.543-2.943 6.229-1.554 9.389s4.518 5.202 7.97 5.202z"/><path d="m220.481 441.776h-25.776c-4.142 0-7.5 3.357-7.5 7.5s3.358 7.5 7.5 7.5h19.28v40.223h-123.055v-205.889h40.222v157.162c0 4.689 3.815 8.504 8.504 8.504h20.049c4.142 0 7.5-3.357 7.5-7.5s-3.358-7.5-7.5-7.5h-13.553v-157.162c0-4.689-3.815-8.504-8.504-8.504h-53.213c-4.689 0-8.504 3.814-8.504 8.504v218.88c0 4.689 3.815 8.505 8.504 8.505h136.047c4.689 0 8.504-3.815 8.504-8.505v-53.213c0-4.689-3.815-8.505-8.505-8.505z"/><path d="m385.422 361.903c-3.88-1.455-8.202.511-9.656 4.389l-49.015 130.707h-44.827l-77.208-205.889h39.202l52.457 139.886c1.249 3.327 4.356 5.518 7.965 5.518 3.58-.001 6.705-2.168 7.96-5.519l52.457-139.885h39.202l-16.178 43.141c-1.455 3.879.511 8.202 4.389 9.656 3.878 1.453 8.201-.511 9.656-4.389l19.468-51.914c.981-2.61.619-5.539-.97-7.832-1.588-2.293-4.202-3.662-6.991-3.662h-53.077c-3.524 0-6.724 2.217-7.963 5.518l-47.956 127.881-47.956-127.883c-1.238-3.299-4.438-5.516-7.962-5.516h-53.077c-2.789 0-5.402 1.368-6.99 3.66s-1.952 5.219-.973 7.83l82.081 218.883c1.238 3.299 4.438 5.516 7.962 5.516h53.83c3.524 0 6.724-2.217 7.963-5.518l50.596-134.922c1.455-3.878-.51-8.202-4.389-9.656z"/><path d="m400.958 441.776c-19.36 0-35.111 15.751-35.111 35.111s15.751 35.111 35.111 35.111 35.111-15.751 35.111-35.111-15.751-35.111-35.111-35.111zm0 55.223c-11.089 0-20.111-9.021-20.111-20.111s9.022-20.111 20.111-20.111 20.111 9.021 20.111 20.111-9.022 20.111-20.111 20.111z"/></g></svg>