<svg id="Layer_5" enable-background="new 0 0 62 62" height="512" viewBox="0 0 62 62" width="512" xmlns="http://www.w3.org/2000/svg"><g><g><g><path d="m19.23 45.01c2.15 0 3.95 1.62 4.19 3.75.19 1.71 1.02 3.22 2.25 4.28-1.9 2.32-4.7 3.77-7.75 3.94-1.45-1.65-2.44-3.71-2.78-5.98l-.14-1.77c0-1.17.47-2.22 1.23-2.98.76-.77 1.81-1.24 2.98-1.24z" fill="#ef7385"/></g><g><path d="m25.59 45.62-5.59-.62h1 2 16.4 5.6c1.1 0 2 .9 2 2v4c0 1.1-.9 2-2 2h-2v-4h-8v4.01l.06.11c-.82.23-1.52.8-1.91 1.59l-.15.29-3.05-.31v-.01l.51-1.8c.15-.51.22-1.04.22-1.57 0-.72-.14-1.45-.41-2.13-.78-1.96-2.58-3.33-4.68-3.56z" fill="#ef7385"/></g><g><path d="m20 45 5.59.62c2.1.23 3.9 1.6 4.68 3.56.27.68.41 1.41.41 2.13 0 .53-.07 1.06-.22 1.57l-.51 1.8v.01l-.64-.07c-1.39-.14-2.65-.72-3.64-1.58-1.23-1.06-2.06-2.57-2.25-4.28-.24-2.13-2.04-3.75-4.19-3.75v-.01z" fill="#ef7385"/></g><g><path d="m61 2v2c0 .55-.45 1-1 1h-1-38v-3c0-.55.45-1 1-1h38c.55 0 1 .45 1 1z" fill="#aab2bd"/></g><g><path d="m61 38v2c0 .55-.45 1-1 1h-19.17c.11-.65.17-1.32.17-2v-2h18 1c.55 0 1 .45 1 1z" fill="#aab2bd"/></g><g><path d="m59 5v32h-18v-12c0-11.05-8.95-20-20-20z" fill="#e6e9ed"/></g><g><path d="m19 45h.23v.01c-.01 0-.01 0-.02 0-1.17 0-2.22.47-2.98 1.24-.76.76-1.23 1.81-1.23 2.98l.14 1.77h-.01-2.13c-6.63 0-12-5.37-12-12v-14c0-5.52 2.24-10.52 5.86-14.14s8.62-5.86 14.14-5.86c11.05 0 20 8.95 20 20v12 2c0 .68-.06 1.35-.17 2-.24 1.44-.74 2.78-1.43 4h-16.4c6.63 0 12-5.37 12-12v-3-10h-3.66c-3.55 0-7.09-.4-10.54-1.2-1.43-.33-2.72-.95-3.83-1.79l-5.15 1.03c-2.8.56-4.82 3.02-4.82 5.88v6.08 3c0 6.63 5.37 12 12 12z" fill="#b27946"/></g><g><path d="m35 53.01v-4.01h8v4 4h-4v-.91c0-1.71-1.38-3.09-3.09-3.09l-.85.12z" fill="#e6e9ed"/></g><g><path d="m53 47v2c0 1.1-.9 2-2 2h-4v-4l.45-.9c.34-.67 1.03-1.1 1.79-1.1h1.76c1.1 0 2 .9 2 2z" fill="#f0d0b4"/></g><g><path d="m39 57v1c0 1.66-1.34 3-3 3h-9.23c-3.25 0-6.19-1.32-8.32-3.45-.18-.18-.36-.37-.53-.57 3.05-.17 5.85-1.62 7.75-3.94.99.86 2.25 1.44 3.64 1.58l.64.07 3.05.31.15-.29c.39-.79 1.09-1.36 1.91-1.59l.85-.12c1.71 0 3.09 1.38 3.09 3.09z" fill="#f0d0b4"/></g><g><path d="m23 30c0 3.31 2.69 6 6 6s6-2.69 6-6v3c0 6.63-5.37 12-12 12h-2-1-.77-.23c-6.63 0-12-5.37-12-12v-3c0 3.31 2.69 6 6 6s6-2.69 6-6-2.69-6-6-6-6 2.69-6 6v-6.08c0-2.86 2.02-5.32 4.82-5.88l5.15-1.03c1.11.84 2.4 1.46 3.83 1.79 3.45.8 6.99 1.2 10.54 1.2h3.66v10c0-3.31-2.69-6-6-6s-6 2.69-6 6z" fill="#f0d0b4"/></g><g><circle cx="29" cy="30" fill="#69d6f4" r="6"/></g><g><circle cx="13" cy="30" fill="#69d6f4" r="6"/></g></g><g><path d="m21 42c2.386 0 4.545-1.413 5.5-3.6l-1.833-.8c-.637 1.458-2.076 2.4-3.667 2.4s-3.03-.942-3.667-2.4l-1.833.8c.955 2.187 3.114 3.6 5.5 3.6z"/><path d="m13 27c-2.206 0-4 1.794-4 4v1h2v-1c0-1.103.897-2 2-2s2 .897 2 2v1h2v-1c0-2.206-1.794-4-4-4z"/><path d="m29 27c-2.206 0-4 1.794-4 4v1h2v-1c0-1.103.897-2 2-2s2 .897 2 2v1h2v-1c0-2.206-1.794-4-4-4z"/><path d="m62 4v-2c0-1.103-.897-2-2-2h-38c-1.103 0-2 .897-2 2v2.051c-11.114.527-20 9.707-20 20.949v14c0 7.168 5.832 13 13 13h1.312c1.27 5.713 6.369 10 12.459 10h9.229c2.205 0 4-1.794 4-4h4v-4h.999c1.302 0 2.402-.839 2.816-2h3.185c1.654 0 3-1.346 3-3v-2c0-1.594-1.252-2.888-2.823-2.982l.337-2.018h8.486c1.103 0 2-.897 2-2v-2c0-1.103-.897-2-2-2v-30c1.103 0 2-.897 2-2zm-40-2h38l.001 2h-38.001zm-8 47.229c0 .26.024.514.039.771h-1.039c-6.065 0-11-4.935-11-11v-14c0-10.477 8.523-19 19-19s19 8.523 19 19v14c0 1.748-.436 3.458-1.225 5h-8.878c3.659-2.303 6.103-6.367 6.103-11v-12-1c0-2.757-2.243-5-5-5h-1v2h1c1.304 0 2.416.836 2.829 2h-2.487c-3.467 0-6.94-.396-10.322-1.176-2.788-.643-5.133-2.596-6.273-5.223l-1.835.797c.484 1.116 1.156 2.124 1.958 3.008l-3.243.648c-3.26.653-5.627 3.541-5.627 6.865v9.081c0 5.974 4.056 11.006 9.555 12.522-.958.947-1.555 2.259-1.555 3.707zm28-10.229v-1h8.153l-.333 2h-7.885c.025-.333.065-.665.065-1zm-12.499 13.606-.279.979c-2.518-.354-4.528-2.391-4.81-4.932-.092-.832-.392-1.587-.82-2.248l1.89.21c1.735.192 3.215 1.319 3.863 2.939.387.967.442 2.051.156 3.052zm-12.739-34.539c1.141.794 2.426 1.387 3.808 1.706 3.529.814 7.153 1.227 10.772 1.227h2.658v4.111c-1.272-1.301-3.042-2.111-5-2.111-2.65 0-4.96 1.481-6.149 3.658-.511-.406-1.149-.658-1.851-.658s-1.34.252-1.851.658c-1.189-2.177-3.499-3.658-6.149-3.658-1.958 0-3.728.81-5 2.111v-1.192c0-2.375 1.69-4.437 4.02-4.903zm12.238 16.933c-2.757 0-5-2.243-5-5s2.243-5 5-5 5 2.243 5 5-2.243 5-5 5zm-11-5c0 2.757-2.243 5-5 5s-5-2.243-5-5 2.243-5 5-5 5 2.243 5 5zm-5 7c3.86 0 7-3.141 7-7v-1c0-.552.449-1 1-1s1 .448 1 1v1c0 3.859 3.14 7 7 7 1.856 0 3.542-.731 4.796-1.915-.978 5.071-5.444 8.915-10.796 8.915h-2-2c-5.352 0-9.818-3.844-10.796-8.915 1.254 1.184 2.94 1.915 4.796 1.915zm3 12.229c0-1.772 1.442-3.218 3.215-3.222h.007c1.644 0 3.02 1.231 3.201 2.866.177 1.595.859 3.044 1.875 4.192-1.589 1.606-3.695 2.618-5.946 2.863-1.467-1.84-2.352-4.166-2.352-6.699zm22 8.771c0 1.103-.897 2-2 2h-9.229c-2.529 0-4.852-.882-6.692-2.346 2.172-.528 4.164-1.661 5.727-3.276.998.664 2.154 1.104 3.399 1.234l4.377.455.457-.912c.357-.713 1.074-1.155 1.871-1.155 1.153 0 2.09.938 2.09 2.091zm4-2h-2.009c-.049-2.182-1.809-3.942-3.991-3.991v-2.009h6zm3.999-5c0 .552-.449 1-1 1h-.999v-4h-10v4.474c-.635.334-1.18.831-1.568 1.461l-1.195-.124.187-.656c.407-1.425.328-2.967-.222-4.343-.453-1.132-1.194-2.092-2.121-2.812h15.918c.551 0 1 .448 1 1zm6.001-4v2c0 .552-.449 1-1 1h-3.001v-2.764l.342-.683c.171-.341.513-.553.894-.553h1.765c.551 0 1 .448 1 1zm-2.848-2.994c-.781.021-1.5.339-2.033.874-.543-.543-1.293-.88-2.12-.88h-3.997c.269-.647.468-1.318.629-2h7.856zm10.848-4.006h-8.153l.333-2h7.82zm-2-4h-5.486l.473-2.836c.091-.544-.277-1.06-.822-1.15-.545-.093-1.06.278-1.151.822l-.528 3.164h-8.486v-11c0-8.401-4.97-15.645-12.114-19h28.114z"/><path d="m48.834 10h7.166v-2h-8.834l-1.809 9.943-1.65-1.65-1.414 1.414 4.35 4.35z"/><path d="m55.168 11.445-2.168 3.252-2.168-3.252-1.664 1.11 2.63 3.945-2.63 3.945 1.664 1.11 2.168-3.252 2.168 3.252 1.664-1.11-2.63-3.945 2.63-3.945z"/><path d="m44 24h2v2h-2z"/><path d="m48 24h8v2h-8z"/><path d="m48 28h8v2h-8z"/><path d="m44 28h2v2h-2z"/></g></g></svg>